Coordinates
version=1
nRows=17
nColumns=40
inDegrees=yes

Units are S.I. units (second, meters, Newtons, ...)
If the header above contains a line with 'inDegrees', this indicates whether rotational values are in degrees (yes) or radians (no).

endheader
time	pelvis_tilt	pelvis_list	pelvis_rotation	pelvis_tx	pelvis_ty	pelvis_tz	hip_flexion_r	hip_adduction_r	hip_rotation_r	knee_angle_r	knee_angle_r_beta	ankle_angle_r	subtalar_angle_r	mtp_angle_r	hip_flexion_l	hip_adduction_l	hip_rotation_l	knee_angle_l	knee_angle_l_beta	ankle_angle_l	subtalar_angle_l	mtp_angle_l	lumbar_extension	lumbar_bending	lumbar_rotation	arm_flex_r	arm_add_r	arm_rot_r	elbow_flex_r	pro_sup_r	wrist_flex_r	wrist_dev_r	arm_flex_l	arm_add_l	arm_rot_l	elbow_flex_l	pro_sup_l	wrist_flex_l	wrist_dev_l
      3.88333333	     -0.64710946	     -0.86674202	      5.87104030	     -0.17748336	      1.09612147	      0.04232363	     56.30388610	     -5.13148207	      4.03814047	     99.31863566	      1.73343720	    -19.93722719	    -36.60705515	      0.00000000	     47.54253988	     -0.61056077	     10.37872034	     46.28128433	      0.80776079	    -17.27552835	    -41.12899118	      0.00000000	    -57.91949311	      2.45066703	     -5.37691691	     84.20937763	     -9.36213593	     16.32447721	     46.12403799	      3.85959153	      0.00000000	      0.00000000	     85.73869325	    -24.38493608	     31.49197700	     61.65849956	     88.81995191	      0.00000000	      0.00000000
      3.89166667	     -0.30777091	     -1.54573658	      5.51796152	     -0.17659072	      1.09580128	      0.04252676	     57.73385858	     -4.44276354	      3.95992246	    101.87277481	      1.77801534	    -17.90677844	    -36.04743911	      0.00000000	     45.17606532	     -1.96994260	      9.99756879	     43.62294693	      0.76136405	    -18.08841542	    -39.61619608	      0.00000000	    -58.12608875	      2.79182054	     -4.56374186	     84.26918878	     -9.29919327	     16.50193150	     46.17521274	      3.89549854	      0.00000000	      0.00000000	     85.44120621	    -24.46615505	     31.16541740	     61.71747643	     88.81773116	      0.00000000	      0.00000000
      3.90000000	      0.13863900	     -2.11426659	      5.03105945	     -0.17559913	      1.09579320	      0.04273848	     59.07380987	     -3.89683971	      3.96745049	    104.21471239	      1.81888986	    -15.44794521	    -33.53335894	      0.00000000	     42.72218245	     -3.42142695	      9.08704628	     41.15773494	      0.71833799	    -18.11707283	    -37.05090509	      0.00000000	    -58.46853237	      2.95793538	     -3.78154372	     84.36070775	     -9.27084937	     16.88885302	     46.19704155	      3.74802449	      0.00000000	      0.00000000	     85.16599798	    -24.54239522	     30.89660848	     61.76010958	     88.81744249	      0.00000000	      0.00000000
      3.90833333	      0.10475316	     -2.86096147	      4.92858958	     -0.17495820	      1.09500397	      0.04249884	     60.96271194	     -3.50292496	      3.67165387	    106.45609315	      1.85800933	    -13.46782952	    -34.02117643	      0.00000000	     40.99319566	     -4.52663127	      8.79417983	     38.97189362	      0.68018786	    -19.00501741	    -36.05944054	      0.00000000	    -58.29684536	      3.55667239	     -3.11870298	     84.38539080	     -9.12779632	     16.95990903	     46.17371178	      4.25783773	      0.00000000	      0.00000000	     84.80725682	    -24.71619811	     30.66210326	     61.90453929	     88.72960484	      0.00000000	      0.00000000
      3.91666667	      0.65650816	     -3.33015644	      4.30342417	     -0.17381996	      1.09529232	      0.04299858	     62.09685899	     -2.74990181	      3.73399620	    108.37792524	      1.89155163	    -10.54562814	    -32.20989998	      0.00000000	     38.66933917	     -6.02954820	      7.24552138	     37.20426987	      0.64933700	    -19.53623464	    -33.33829547	      0.00000000	    -58.78593578	      3.51251687	     -2.36389232	     84.47923258	     -9.08639179	     17.37933026	     46.17531744	      3.81761642	      0.00000000	      0.00000000	     84.54164857	    -24.84895556	     30.39973237	     62.00660546	     88.80907589	      0.00000000	      0.00000000
      3.92500000	      0.82279046	     -3.69699333	      4.31320646	     -0.17292623	      1.09491374	      0.04237942	     63.66598754	     -2.74871960	      3.70254390	    110.04857558	      1.92070998	     -7.96833479	    -30.72522331	      0.00000000	     36.93213982	     -6.78475533	      6.46376254	     35.67500351	      0.62264627	    -20.31759526	    -31.53541957	      0.00000000	    -58.82575796	      3.97054188	     -2.09141637	     84.49121529	     -8.95730320	     17.61252070	     46.13513732	      4.00009658	      0.00000000	      0.00000000	     84.16087786	    -25.03857470	     30.12143815	     62.15837531	     88.83688526	      0.00000000	      0.00000000
      3.93333333	      0.87150967	     -4.17743902	      4.22740634	     -0.17239856	      1.09480589	      0.04216535	     65.26743799	     -2.62748672	      3.55301386	    111.32415830	      1.94297310	     -5.71230162	    -29.40440345	      0.00000000	     35.46824580	     -7.65421587	      5.75959685	     34.42410273	      0.60081393	    -21.37280673	    -30.25385045	      0.00000000	    -58.84136626	      4.37817732	     -1.66098158	     84.57916204	     -8.88575276	     17.91964741	     46.12212792	      3.83699729	      0.00000000	      0.00000000	     83.92810781	    -25.24787831	     30.01067774	     62.29356093	     88.81551324	      0.00000000	      0.00000000
      3.94166667	      0.70081099	     -4.56128750	      4.28891831	     -0.17232915	      1.09470461	      0.04175805	     67.01647840	     -2.71350359	      3.26850101	    112.24021635	      1.95896133	     -4.23722277	    -29.68790166	      0.00000000	     34.35452267	     -8.17770736	      5.54531934	     33.36902140	      0.58239929	    -22.54428394	    -29.58168296	      0.00000000	    -58.69036858	      4.84297255	     -1.39704578	     84.68065718	     -8.79338382	     18.03985052	     46.12673351	      4.06484850	      0.00000000	      0.00000000	     83.76068326	    -25.41034040	     29.88125714	     62.37611474	     88.82836208	      0.00000000	      0.00000000
      3.95000000	      0.44864194	     -4.86565807	      4.21448034	     -0.17250993	      1.09468855	      0.04147473	     68.78147251	     -2.92244127	      2.96095603	    112.82399180	      1.96915013	     -2.81175301	    -29.78736806	      0.00000000	     33.55637036	     -8.69731512	      5.14389268	     32.79701057	      0.57241582	    -23.92399654	    -28.94582008	      0.00000000	    -58.50017586	      5.14054268	     -1.12462247	     84.82310311	     -8.77630005	     18.31407400	     46.17000692	      4.10182816	      0.00000000	      0.00000000	     83.61461295	    -25.52035078	     29.68580123	     62.45120750	     88.80960385	      0.00000000	      0.00000000
      3.95833333	      0.16856800	     -5.06898469	      4.22777405	     -0.17262095	      1.09460002	      0.04098588	     70.44636875	     -3.15649910	      2.73606645	    113.14020640	      1.97466912	     -1.61983027	    -30.04513198	      0.00000000	     32.97832285	     -9.01174216	      4.92886299	     32.64054684	      0.56968501	    -24.91678644	    -28.69041023	      0.00000000	    -58.26901026	      5.45020674	     -0.95256902	     84.93775602	     -8.86644309	     18.58177719	     46.34352280	      3.98296920	      0.00000000	      0.00000000	     83.41734809	    -25.53806094	     29.39010779	     62.50476855	     88.80468893	      0.00000000	      0.00000000
      3.96666667	      0.13504157	     -5.18827414	      4.20048811	     -0.17270737	      1.09508286	      0.04058586	     71.85188161	     -3.34765770	      2.60605576	    113.22341826	      1.97612144	     -0.77715712	    -30.47912777	      0.00000000	     32.27514735	     -9.24123855	      4.85685564	     32.82958725	      0.57298439	    -25.61466554	    -28.39736697	      0.00000000	    -58.31951691	      5.64474411	     -0.80393509	     85.07998162	     -8.84497057	     18.63483745	     46.35970214	      4.18831943	      0.00000000	      0.00000000	     83.33684783	    -25.54543251	     29.24922717	     62.48140594	     88.81585736	      0.00000000	      0.00000000
      3.97500000	      0.16879887	     -5.29091062	      4.30823028	     -0.17263305	      1.09550090	      0.04028141	     72.89936130	     -2.99886524	      2.72673251	    113.06042902	      1.97327674	      0.17194930	    -31.09533312	      0.00000000	     31.88594623	     -9.46368087	      4.71631978	     33.69016650	      0.58800433	    -26.44525906	    -28.19577496	      0.00000000	    -58.42012427	      5.89876665	     -0.74593739	     85.16035836	     -8.84085359	     18.73850010	     46.45767873	      4.31871769	      0.00000000	      0.00000000	     83.25754066	    -25.55682630	     29.03914278	     62.48411403	     88.81353664	      0.00000000	      0.00000000
      3.98333333	      0.00640611	     -5.47522173	      4.15431607	     -0.17302615	      1.09607615	      0.04036533	     74.20072924	     -2.90214226	      2.29482506	    112.44712128	      1.96257250	      0.36601901	    -32.46792056	      0.00000000	     31.78395458	     -9.83546321	      4.46278133	     34.68588391	      0.60538288	    -27.58296044	    -29.06184523	      0.00000000	    -58.39988251	      5.95690742	     -0.51956984	     85.30654521	     -8.82235191	     18.80139463	     46.44916892	      4.63188019	      0.00000000	      0.00000000	     83.30638648	    -25.60904792	     29.07717516	     62.49108257	     88.81974418	      0.00000000	      0.00000000
      3.99166667	     -0.65000595	     -5.87952768	      3.89069301	     -0.17368374	      1.09577389	      0.04056823	     75.81250002	     -2.53813963	      1.86906217	    111.60181107	      1.94781905	      0.60814472	    -33.46563076	      0.00000000	     32.57691196	    -10.31383885	      4.72002475	     36.27625519	      0.63314009	    -28.16028508	    -29.60697382	      0.00000000	    -57.84846584	      6.10396442	     -0.00786557	     85.34702982	     -9.07273933	     19.21523642	     46.78119034	      4.03608550	      0.00000000	      0.00000000	     82.98065523	    -25.22411206	     28.16367486	     62.48894904	     88.82630469	      0.00000000	      0.00000000
      4.00000000	     -0.59429598	     -5.88022412	      3.92077432	     -0.17384937	      1.09646311	      0.04026063	     76.36721907	     -2.57639747	      1.72599802	    110.51750540	      1.92889435	      0.87748324	    -34.36375505	      0.00000000	     32.65469275	    -10.36580953	      4.78890194	     38.03189304	      0.66378175	    -28.77580537	    -30.20863865	      0.00000000	    -58.00870541	      6.19674078	      0.01585482	     85.45481229	     -9.10688242	     19.35323526	     46.81260202	      3.88543348	      0.00000000	      0.00000000	     82.97571480	    -25.17665697	     27.97829049	     62.49767258	     88.82267295	      0.00000000	      0.00000000
      4.00833333	     -0.50850912	     -5.76985563	      3.79233776	     -0.17403672	      1.09726664	      0.04021801	     76.76480664	     -2.54561938	      1.75582946	    109.00208614	      1.90244529	      1.38228520	    -33.96146478	      0.00000000	     32.80323610	    -10.48654850	      4.51833538	     40.04766271	      0.69896357	    -28.93914325	    -29.96288892	      0.00000000	    -58.20595834	      6.07175205	     -0.03302393	     85.52414246	     -8.86538175	     18.77240451	     46.71048527	      5.31018539	      0.00000000	      0.00000000	     83.06526996	    -25.20159262	     27.93117788	     62.38124795	     88.86714905	      0.00000000	      0.00000000
      4.01666667	     -0.68633756	     -5.81825555	      3.48268067	     -0.17443432	      1.09755219	      0.04038201	     77.22822579	     -2.10457784	      1.72008302	    107.35587397	      1.87371347	      1.27046666	    -34.62788242	      0.00000000	     33.52449714	    -10.65442959	      4.66001544	     42.50962699	      0.74193295	    -29.72177573	    -31.20278115	      0.00000000	    -58.12424430	      5.89611702	      0.21712252	     85.59809149	     -9.03898124	     19.26538128	     46.89047743	      3.96690930	      0.00000000	      0.00000000	     82.99602890	    -24.94087559	     27.46384184	     62.27730725	     88.82684916	      0.00000000	      0.00000000
